<?xml version="1.0" encoding="utf-8"?>
<!-- Generator: Adobe Illustrator 19.1.0, SVG Export Plug-In . SVG Version: 6.00 Build 0)  -->
<svg version="1.1" id="Layer_1" xmlns="http://www.w3.org/2000/svg" xmlns:xlink="http://www.w3.org/1999/xlink" x="0px" y="0px"
	 viewBox="0 0 1265.5 603.2" style="enable-background:new 0 0 1265.5 603.2;" xml:space="preserve">
<style type="text/css">
	.st0{fill:#FFFFFF;stroke:#A7A9AC;stroke-width:5;stroke-miterlimit:10;}
	.st1{fill:none;}
	.st2{fill:#A7A9AC;}
	.st3{font-family:'Arial-BoldMT';}
	.st4{font-size:12.2976px;}
	.st5{font-size:10.33px;}
	
		.st6{fill:none;stroke:#A7A9AC;stroke-width:5;stroke-linecap:round;stroke-linejoin:round;stroke-miterlimit:10;stroke-dasharray:1,10;}
	.st7{font-size:8.8543px;}
	.st8{font-family:'ArialMT';}
	.st9{font-size:7.2728px;}
	.st10{font-size:13.2814px;}
	.st11{fill:none;stroke:#DEE0E2;stroke-width:5;stroke-miterlimit:10;}
	.st12{fill:none;stroke:#A7A9AC;stroke-width:5;stroke-miterlimit:10;}
	.st13{fill:#EFC319;}
	.st14{fill:#FFFFFF;stroke:#EFC319;stroke-width:5;stroke-miterlimit:10;}
	.st15{fill:#231F20;}
	.st16{font-size:45.6901px;}
	.st17{font-size:33.8445px;}
	.st18{font-size:40.6134px;}
	.st19{fill:none;stroke:#EFC319;stroke-width:5;stroke-miterlimit:10;}
</style>
<g>
	<rect x="2" y="3" class="st0" width="293.7" height="433.8"/>
	<g>
		<rect x="13.9" y="199" class="st1" width="256.2" height="69.5"/>
		<rect x="25.5" y="132.2" class="st1" width="256.2" height="26.3"/>
		<rect x="14.3" y="85" class="st2" width="190.5" height="2.5"/>
		<rect x="13.9" y="276" class="st2" width="190.5" height="2.5"/>
		<rect x="13.9" y="285.7" class="st2" width="190.5" height="2.5"/>
		<rect x="13.9" y="295.3" class="st2" width="256.2" height="2.5"/>
		<rect x="13.9" y="305" class="st2" width="256.2" height="2.5"/>
		<text transform="matrix(1 0 0 1 228.4859 132.1943)" class="st3 st4">£x.xx</text>
		<text transform="matrix(1 0 0 1 13.857 169.5869)" class="st3 st5">Income and Benefits</text>
		<line class="st6" x1="14.7" y1="110.7" x2="281.6" y2="110.7"/>
		<text transform="matrix(1 0 0 1 14.3536 74.8506)" class="st3 st7">The Employment and support Allowance Award</text>
		<text transform="matrix(1 0 0 1 13.857 132.1943)" class="st8 st9">Your living expenses</text>
		<text transform="matrix(1 0 0 1 13.857 147.4014)" class="st3 st9">Which gives a total income-related amount</text>
		<text transform="matrix(1 0 0 1 228.4859 147.4014)" class="st3 st4">£x.xx</text>
		<text transform="matrix(1 0 0 1 13.857 188.7392)" class="st8 st9">Your Income-related amount is £x.xx less total income of £x.xx</text>
		<text transform="matrix(1 0 0 1 13.857 203.9463)" class="st3 st9">So your income-related entitlement is</text>
		<text transform="matrix(1 0 0 1 228.4859 203.9463)" class="st3 st4">£x.xx</text>
		<rect x="13.9" y="23.2" class="st1" width="267.8" height="53.6"/>
		<text transform="matrix(1 0 0 1 13.8566 32.6855)"><tspan x="0" y="0" class="st3 st10">How Employment and Support Allowance </tspan><tspan x="0" y="15.9" class="st3 st10">has been worked out</tspan></text>
	</g>
	<path class="st11" d="M281.6,242.6"/>
	<path class="st11" d="M281.6,193.9"/>
	<line class="st12" x1="13.9" y1="414.2" x2="281.2" y2="414.2"/>
	<text transform="matrix(1 0 0 1 235.2135 426.8086)" class="st3 st9">Page 03 of 03</text>
</g>
<g>
	<g>
		<polygon class="st13" points="8,215 284.7,214.7 285.5,175.6 1263,302.7 161.1,602.7 		"/>
		<path class="st13" d="M286,176.1l974.4,126.7L161.4,602L8.7,215.5l275.5-0.2l1,0l0-1L286,176.1 M285,175l-0.8,39.2l-277,0.2
			l153.5,388.8l1104.8-300.8L285,175L285,175z"/>
	</g>
</g>
<g>
	<g>
		<rect x="163.3" y="305" class="st14" width="1099.9" height="296"/>
	</g>
	<rect x="331" y="515.9" class="st13" width="533.8" height="56.5"/>
	<text transform="matrix(1 0 0 1 198.2329 401.8643)" class="st15 st3 st16">Income and Benefits</text>
	<text transform="matrix(1 0 0 1 198.2329 479.7363)" class="st15 st3 st17">Your Income-related amount is £x.xx less total income of £x.xx </text>
	<text transform="matrix(1 0 0 1 198.2329 553.8457)" class="st15 st3 st17">So your</text>
	<text transform="matrix(1 0 0 1 328.1958 553.8457)" class="st15 st3 st18"> income-related entitlement</text>
	<text transform="matrix(1 0 0 1 874.9541 553.8457)" class="st15 st3 st17"> is</text>
</g>
<rect x="9.7" y="177.4" class="st19" width="273" height="34.6"/>
</svg>
