<?xml version="1.0" encoding="utf-8"?>
<!-- Generator: Adobe Illustrator 19.1.0, SVG Export Plug-In . SVG Version: 6.00 Build 0)  -->
<svg version="1.1" id="Layer_1" xmlns="http://www.w3.org/2000/svg" xmlns:xlink="http://www.w3.org/1999/xlink" x="0px" y="0px"
	 viewBox="564 -425.9 1269.7 881.9" style="enable-background:new 564 -425.9 1269.7 881.9;" xml:space="preserve">
<style type="text/css">
	.st0{fill:none;stroke:#A7A9AC;stroke-width:5;stroke-miterlimit:10;}
	.st1{fill:none;}
	.st2{font-family:'Arial-BoldMT';}
	.st3{font-size:18px;}
	.st4{fill:#A7A9AC;}
	.st5{fill:#FFFFFF;}
	.st6{font-size:25px;}
	.st7{font-size:21px;}
	
		.st8{fill:none;stroke:#A7A9AC;stroke-width:5;stroke-linecap:round;stroke-linejoin:round;stroke-miterlimit:10;stroke-dasharray:1,10;}
	.st9{font-family:'ArialMT';}
	.st10{font-size:14.7851px;}
	.st11{fill:none;stroke:#DEE0E2;stroke-width:5;stroke-miterlimit:10;}
	.st12{fill:#EFC319;}
	.st13{fill:#FFFFFF;stroke:#EFC319;stroke-width:5;stroke-miterlimit:10;}
	.st14{fill:#231F20;}
	.st15{font-size:27px;}
	.st16{font-size:20px;}
	.st17{font-size:24px;}
	.st18{fill:none;stroke:#EFC319;stroke-width:5;stroke-miterlimit:10;}
</style>
<rect x="564" y="-425.9" class="st0" width="597" height="881.9"/>
<g>
	<rect x="588.2" y="-77.3" class="st1" width="520.8" height="141.2"/>
	<rect x="611.7" y="-213.2" class="st1" width="520.8" height="53.4"/>
	<text transform="matrix(1 0 0 1 588.1016 -360.2774)" class="st2 st3">How Employment and Support Allowance has been worked out</text>
	<rect x="589" y="-309.1" class="st4" width="387.2" height="5"/>
	<rect x="588.1" y="-0.1" class="st4" width="387.2" height="5"/>
	<rect x="588.1" y="19.6" class="st4" width="387.2" height="5"/>
	<rect x="588.1" y="39.2" class="st4" width="520.9" height="5"/>
	<rect x="588.1" y="58.9" class="st4" width="520.9" height="5"/>
	<path class="st5" d="M615.1-410.4c-0.9,0.4-1.9-0.1-2.3-1c-0.4-0.9,0.1-1.9,1-2.3c0.9-0.4,1.9,0.1,2.3,1
		C616.5-411.8,616-410.8,615.1-410.4"/>
	<path class="st5" d="M610.7-409c-0.9,0.4-1.9-0.1-2.3-1c-0.4-0.9,0.1-1.9,1-2.3c0.9-0.4,1.9,0.1,2.3,1
		C612-410.4,611.6-409.4,610.7-409"/>
	<path class="st5" d="M619.2-408c-0.9,0.4-1.9-0.1-2.3-1c-0.4-0.9,0.1-1.9,1-2.3c0.9-0.4,1.9,0.1,2.3,1
		C620.5-409.4,620.1-408.4,619.2-408"/>
	<path class="st5" d="M598.9-409c0.9,0.4,1.9-0.1,2.3-1c0.4-0.9-0.1-1.9-1-2.3c-0.9-0.4-1.9,0.1-2.3,1
		C597.6-410.4,598-409.4,598.9-409"/>
	<path class="st5" d="M594.4-410.4c0.9,0.4,1.9-0.1,2.3-1c0.4-0.9-0.1-1.9-1-2.3c-0.9-0.4-1.9,0.1-2.3,1
		C593.1-411.8,593.5-410.8,594.4-410.4"/>
	<path class="st5" d="M590.4-408c0.9,0.4,1.9-0.1,2.3-1c0.4-0.9-0.1-1.9-1-2.3c-0.9-0.4-1.9,0.1-2.3,1
		C589.1-409.4,589.5-408.4,590.4-408"/>
	<path class="st5" d="M589.2-403.6c0.9,0.4,1.9-0.1,2.3-1c0.4-0.9-0.1-1.9-1-2.3s-1.9,0.1-2.3,1C587.9-405,588.3-403.9,589.2-403.6"
		/>
	<path class="st5" d="M605.7-413.6L605.7-413.6l2.2,1.2v-3.3l-2.2,0.7l0,0c-0.1-0.1-0.1-0.2-0.2-0.2l0,0l0.9-2.8h-1.6h-1.6l0.9,2.8
		l0,0c-0.1,0.1-0.2,0.1-0.2,0.2l0,0l-2.2-0.7v3.3l2.2-1.2l0,0c0.1,0.1,0.1,0.2,0.2,0.2l-1.3,3.9l0,0l0,0l0,0
		c-0.1,0.2-0.1,0.4-0.1,0.6c0,1.1,0.8,1.9,1.8,2.1l0,0c0.1,0,0.2,0,0.3,0c0.1,0,0.2,0,0.3,0l0,0c1-0.1,1.8-1,1.8-2.1
		c0-0.2,0-0.4-0.1-0.6l0,0l0,0l0,0l-1.3-3.9C605.6-413.4,605.6-413.5,605.7-413.6"/>
	<text transform="matrix(1 0 0 1 1024.4248 -213.2)" class="st2 st6">£x.xx</text>
	<text transform="matrix(1 0 0 1 588.1016 -137.1842)" class="st2 st7">Income and Benefits</text>
	<line class="st8" x1="589.9" y1="-256.9" x2="1132.5" y2="-256.9"/>
	<text transform="matrix(1 0 0 1 589.1121 -329.7747)" class="st2 st3">The Employment and support Allowance Award</text>
	<text transform="matrix(1 0 0 1 588.1016 -213.1999)" class="st9 st10">Your living expenses</text>
	<text transform="matrix(1 0 0 1 588.1015 -182.2856)" class="st2 st10">Which gives a total income-related amount</text>
	<text transform="matrix(1 0 0 1 1024.4248 -182.2858)" class="st2 st6">£x.xx</text>
	<text transform="matrix(1 0 0 1 588.1015 -98.2497)" class="st9 st10">Your Income-related amount is £x.xx less total income of £x.xx</text>
	<text transform="matrix(1 0 0 1 588.1014 -67.3355)" class="st2 st10">So your income-related entitlement is</text>
	<text transform="matrix(1 0 0 1 1024.4248 -67.3356)" class="st2 st6">£x.xx</text>
</g>
<line class="st11" x1="589" y1="-37.9" x2="589" y2="61.1"/>
<path class="st11" d="M1132.5,61.1"/>
<path class="st11" d="M1132.5-37.9"/>
<g>
	<polygon class="st12" points="1179.8,-296.2 1131.6,-117.8 1131.6,-48.8 1831.7,-119.2 	"/>
</g>
<g>
	<g>
		<rect x="1181.7" y="-294" class="st13" width="650" height="174.9"/>
	</g>
	<rect x="1283.8" y="-185.5" class="st12" width="322.6" height="33.4"/>
	<rect x="1202.4" y="-317.6" class="st1" width="616.3" height="317.3"/>
	<text transform="matrix(1 0 0 1 1202.3553 -247.1585)"><tspan x="0" y="0" class="st14 st2 st15">Income and Benefits</tspan><tspan x="0" y="56.4" class="st14 st2 st16">Your Income-related amount is £x.xx less total income of </tspan><tspan x="0" y="80.4" class="st14 st2 st16">£x.xx</tspan><tspan x="0" y="109.2" class="st14 st2 st16">So your</tspan><tspan x="76.8" y="109.2" class="st14 st2 st17"> income-related entitlement</tspan><tspan x="399.9" y="109.2" class="st14 st2 st16"> is</tspan></text>
</g>
<rect x="577.6" y="-119.2" class="st18" width="554.9" height="70.4"/>
<line class="st0" x1="588.1" y1="410" x2="1131.6" y2="410"/>
<text transform="matrix(1 0 0 1 1038.1014 435.6645)" class="st2 st10">Page 03 of 03</text>
</svg>
