<?xml version="1.0" encoding="UTF-8"?>
<svg width="21px" height="32px" viewBox="0 0 21 32" version="1.1" xmlns="http://www.w3.org/2000/svg" xmlns:xlink="http://www.w3.org/1999/xlink">
    <!-- Generator: Sketch 43.2 (39069) - http://www.bohemiancoding.com/sketch -->
    <title>32</title>
    <desc>Created with Sketch.</desc>
    <defs></defs>
    <g id="Page-1" stroke="none" stroke-width="1" fill="none" fill-rule="evenodd">
        <g id="32" fill-rule="nonzero" fill="#000000">
            <g id="mobile-2x" transform="translate(4.000000, 0.000000)">
                <path d="M0.232142857,12.5294118 L0.232142857,2.27941176 C0.212328404,1.73330316 0.409282583,1.20324267 0.77551708,0.81703506 C1.14175158,0.430827449 1.64403137,0.223520251 2.16125,0.245098039 L10.855,0.245098039 C11.3673611,0.228589594 11.8634002,0.436404521 12.2256429,0.819327119 C12.5878858,1.20224972 12.7841144,1.72622289 12.7678571,2.26715686 L12.7678571,22.7352941 C12.783493,23.2762485 12.5866626,23.79997 12.2239802,24.1824285 C11.8612977,24.564887 11.3650203,24.7720664 10.8526786,24.754902 L2.13107143,24.754902 C1.62358104,24.7671154 1.13347386,24.5594696 0.774750088,24.1802635 C0.416026317,23.8010574 0.219955007,23.2833456 0.232142857,22.747549 L0.232142857,12.5294118 Z M1.41607143,20.7843137 L11.5769643,20.7843137 L11.5769643,4.4632353 L1.41375,4.4632353 L1.41607143,20.7843137 Z M7.33339287,22.6053921 C7.34220641,22.3490105 7.25202465,22.0998422 7.08351873,21.915001 C6.91501284,21.7301597 6.68263237,21.6254958 6.43964287,21.625 C6.10229994,21.6070394 5.78304104,21.7868355 5.60926649,22.0926407 C5.43549194,22.3984459 5.43549194,22.7804757 5.60926649,23.0862809 C5.78304104,23.3920861 6.10229994,23.5718822 6.43964287,23.5539216 C6.67727602,23.5539292 6.90507618,23.4537611 7.07245313,23.2756628 C7.23983005,23.0975645 7.33292796,22.8562792 7.33107142,22.6053921 L7.33339287,22.6053921 Z M6.52089287,2.48039216 L5.67821429,2.48039216 C5.52035713,2.48039216 5.3625,2.5122549 5.38107142,2.69607843 C5.4260541,2.82232333 5.52966936,2.91503326 5.655,2.94117647 C6.22375,2.96568627 6.79714287,2.96568627 7.36589287,2.94117647 C7.46339287,2.94117647 7.55625,2.78431373 7.65142858,2.69607843 C7.55625,2.625 7.46339287,2.50490196 7.36125,2.49509804 C7.08267858,2.46323529 6.80178571,2.48039216 6.52089287,2.48039216 Z" id="Shape"></path>
                <rect id="Rectangle" x="4.64285713" y="1.2254902" width="3.94642858" height="2.20588235"></rect>
            </g>
        </g>
    </g>
</svg>