<?xml version="1.0" encoding="utf-8"?>
<!-- Generator: Adobe Illustrator 19.1.0, SVG Export Plug-In . SVG Version: 6.00 Build 0)  -->
<svg version="1.1" id="Layer_1" xmlns="http://www.w3.org/2000/svg" xmlns:xlink="http://www.w3.org/1999/xlink" x="0px" y="0px"
	 viewBox="0 0 420.4 276" style="enable-background:new 0 0 420.4 276;" xml:space="preserve">
<style type="text/css">
	.st0{fill:#808285;}
	.st1{fill:#007AC2;}
	.st2{fill:#FFFFFF;}
	.st3{fill:#E6E7E8;}
</style>
<g>
	<path class="st0" d="M390.2,270H29c-13.3,0-24.2-10.8-24.2-24.2V31.8C4.8,18.4,15.7,7.6,29,7.6h361.2c13.3,0,24.2,10.8,24.2,24.2
		v214.1C414.4,259.2,403.5,270,390.2,270z M29,12.6c-10.6,0-19.2,8.6-19.2,19.2v214.1c0,10.6,8.6,19.2,19.2,19.2h361.2
		c10.6,0,19.2-8.6,19.2-19.2V31.8c0-10.6-8.6-19.2-19.2-19.2H29z"/>
</g>
<g>
	<path d="M24.4,48.1V33.8h2.8l5.9,9.6v-9.6h2.7v14.3h-2.9l-5.8-9.3v9.3H24.4z"/>
	<path d="M38.8,48.1V33.8h2.9v5.6h5.7v-5.6h2.9v14.3h-2.9v-6.3h-5.7v6.3H38.8z"/>
	<path d="M52.5,43.4l2.8-0.3c0.2,0.9,0.5,1.6,1,2.1s1.2,0.7,2.1,0.7c0.9,0,1.6-0.2,2.1-0.6s0.7-0.9,0.7-1.4c0-0.3-0.1-0.6-0.3-0.9
		s-0.5-0.4-1-0.6c-0.3-0.1-1.1-0.3-2.3-0.6c-1.5-0.4-2.6-0.9-3.3-1.4c-0.9-0.8-1.3-1.7-1.3-2.9c0-0.7,0.2-1.4,0.6-2s1-1.1,1.8-1.5
		s1.7-0.5,2.8-0.5c1.8,0,3.1,0.4,4.1,1.2s1.4,1.8,1.4,3.2L60.9,38c-0.1-0.7-0.4-1.3-0.8-1.6s-1-0.5-1.8-0.5c-0.8,0-1.5,0.2-2,0.5
		c-0.3,0.2-0.5,0.5-0.5,0.9c0,0.3,0.1,0.6,0.4,0.9c0.4,0.3,1.2,0.6,2.7,1s2.4,0.7,3.1,1s1.2,0.8,1.6,1.5s0.6,1.4,0.6,2.3
		c0,0.8-0.2,1.6-0.7,2.3s-1.1,1.2-1.9,1.6s-1.9,0.5-3.1,0.5c-1.8,0-3.2-0.4-4.2-1.3S52.7,45,52.5,43.4z"/>
	<path d="M75.4,48.1V36.2h-4.2v-2.4h11.4v2.4h-4.2v11.9H75.4z"/>
	<path d="M84.9,40.9l-2.5-0.4c0.3-1,0.8-1.7,1.4-2.2s1.7-0.7,3-0.7c1.2,0,2.1,0.1,2.7,0.4s1,0.7,1.3,1.1s0.4,1.3,0.4,2.5l0,3.2
		c0,0.9,0,1.6,0.1,2s0.3,0.9,0.5,1.4h-2.7c-0.1-0.2-0.2-0.5-0.3-0.8c0-0.2-0.1-0.3-0.1-0.3c-0.5,0.5-1,0.8-1.5,1s-1.1,0.3-1.7,0.3
		c-1.1,0-1.9-0.3-2.5-0.9s-0.9-1.3-0.9-2.2c0-0.6,0.1-1.1,0.4-1.6s0.7-0.8,1.2-1.1s1.2-0.5,2.2-0.6c1.3-0.2,2.2-0.5,2.7-0.7V41
		c0-0.5-0.1-0.9-0.4-1.1s-0.8-0.3-1.5-0.3c-0.5,0-0.9,0.1-1.1,0.3S85.1,40.4,84.9,40.9z M88.6,43.1c-0.4,0.1-0.9,0.3-1.7,0.4
		s-1.3,0.3-1.5,0.5c-0.4,0.3-0.5,0.6-0.5,1c0,0.4,0.1,0.7,0.4,1s0.7,0.4,1.1,0.4c0.5,0,1-0.2,1.4-0.5c0.3-0.2,0.6-0.6,0.7-0.9
		c0.1-0.2,0.1-0.7,0.1-1.3V43.1z"/>
	<path d="M92.7,48.1l3.7-5.3l-3.6-5h3.3l1.8,2.9l1.9-2.9h3.2l-3.5,4.9l3.8,5.5h-3.4L98,44.9l-2.1,3.2H92.7z"/>
	<path d="M119.8,42.8l2.8,0.9c-0.4,1.6-1.1,2.7-2.1,3.5s-2.3,1.1-3.8,1.1c-1.9,0-3.5-0.6-4.7-1.9s-1.8-3.1-1.8-5.3
		c0-2.4,0.6-4.2,1.8-5.6s2.8-2,4.9-2c1.8,0,3.2,0.5,4.3,1.6c0.7,0.6,1.1,1.5,1.5,2.6l-2.9,0.7c-0.2-0.7-0.5-1.3-1.1-1.8
		s-1.2-0.6-2-0.6c-1.1,0-1.9,0.4-2.6,1.1s-1,2-1,3.7c0,1.8,0.3,3.1,1,3.9s1.5,1.2,2.5,1.2c0.8,0,1.4-0.2,2-0.7
		S119.6,43.9,119.8,42.8z"/>
	<path d="M127.7,48.1H125V37.7h2.5v1.5c0.4-0.7,0.8-1.2,1.2-1.4s0.7-0.3,1.2-0.3c0.6,0,1.2,0.2,1.8,0.5l-0.8,2.4
		c-0.5-0.3-0.9-0.4-1.3-0.4c-0.4,0-0.7,0.1-1,0.3s-0.5,0.6-0.6,1.1c-0.2,0.6-0.2,1.7-0.2,3.5V48.1z"/>
	<path d="M138.9,44.8l2.7,0.5c-0.4,1-0.9,1.8-1.7,2.3s-1.7,0.8-2.8,0.8c-1.8,0-3.1-0.6-4-1.8c-0.7-0.9-1-2.1-1-3.6
		c0-1.7,0.4-3.1,1.3-4s2-1.5,3.4-1.5c1.5,0,2.8,0.5,3.7,1.5s1.3,2.6,1.3,4.7h-6.9c0,0.8,0.2,1.4,0.7,1.9s1,0.7,1.6,0.7
		c0.4,0,0.8-0.1,1.1-0.4S138.7,45.3,138.9,44.8z M139,42c0-0.8-0.2-1.4-0.6-1.8s-0.9-0.6-1.4-0.6c-0.6,0-1.1,0.2-1.5,0.7
		s-0.6,1-0.6,1.8H139z"/>
	<path d="M153.5,48.1H151v-1.5c-0.4,0.6-0.9,1-1.5,1.3s-1.2,0.4-1.7,0.4c-1.2,0-2.2-0.5-3.1-1.4s-1.3-2.3-1.3-4c0-1.8,0.4-3.1,1.2-4
		s1.9-1.4,3.1-1.4c1.2,0,2.2,0.5,3,1.4v-5.2h2.7V48.1z M146.2,42.7c0,1.1,0.2,1.9,0.5,2.4c0.4,0.7,1.1,1.1,1.9,1.1
		c0.6,0,1.2-0.3,1.6-0.8s0.7-1.3,0.7-2.4c0-1.2-0.2-2-0.6-2.6s-1-0.8-1.7-0.8c-0.7,0-1.2,0.3-1.6,0.8S146.2,41.6,146.2,42.7z"/>
	<path d="M156.2,36.3v-2.5h2.7v2.5H156.2z M156.2,48.1V37.7h2.7v10.4H156.2z"/>
	<path d="M166.5,37.7v2.2h-1.9v4.2c0,0.8,0,1.3,0.1,1.5s0.1,0.3,0.2,0.3s0.3,0.1,0.5,0.1c0.3,0,0.6-0.1,1.1-0.3l0.2,2.1
		c-0.6,0.3-1.4,0.4-2.2,0.4c-0.5,0-0.9-0.1-1.3-0.2s-0.7-0.4-0.9-0.6s-0.3-0.6-0.4-1.1c-0.1-0.3-0.1-1-0.1-1.9v-4.5h-1.3v-2.2h1.3
		v-2.1l2.8-1.6v3.7H166.5z"/>
	<path d="M174,48.1V33.8h10.6v2.4h-7.7v3.2h7.2v2.4h-7.2v3.9h8v2.4H174z"/>
	<path d="M186,48.1l3.7-5.3l-3.6-5h3.3l1.8,2.9l1.9-2.9h3.2l-3.5,4.9l3.8,5.5h-3.4l-2.1-3.2l-2.1,3.2H186z"/>
	<path d="M204.5,44.8l2.7,0.5c-0.4,1-0.9,1.8-1.7,2.3s-1.7,0.8-2.8,0.8c-1.8,0-3.1-0.6-4-1.8c-0.7-0.9-1-2.1-1-3.6
		c0-1.7,0.4-3.1,1.3-4s2-1.5,3.4-1.5c1.5,0,2.8,0.5,3.7,1.5s1.3,2.6,1.3,4.7h-6.9c0,0.8,0.2,1.4,0.7,1.9s1,0.7,1.6,0.7
		c0.4,0,0.8-0.1,1.1-0.4S204.3,45.3,204.5,44.8z M204.6,42c0-0.8-0.2-1.4-0.6-1.8s-0.9-0.6-1.4-0.6c-0.6,0-1.1,0.2-1.5,0.7
		s-0.6,1-0.6,1.8H204.6z"/>
	<path d="M209.4,37.7h2.5v1.4c0.9-1.1,2-1.7,3.2-1.7c0.7,0,1.2,0.1,1.7,0.4s0.9,0.7,1.2,1.2c0.5-0.6,0.9-1,1.5-1.2s1.1-0.4,1.7-0.4
		c0.8,0,1.4,0.2,1.9,0.5s0.9,0.8,1.2,1.4c0.2,0.4,0.3,1.2,0.3,2.1v6.6h-2.7v-5.9c0-1-0.1-1.7-0.3-2c-0.3-0.4-0.6-0.6-1.2-0.6
		c-0.4,0-0.7,0.1-1.1,0.4s-0.6,0.6-0.7,1s-0.2,1.2-0.2,2.1v5h-2.7v-5.7c0-1,0-1.7-0.1-2s-0.2-0.5-0.5-0.7s-0.5-0.2-0.8-0.2
		c-0.4,0-0.8,0.1-1.1,0.3s-0.6,0.6-0.7,1s-0.2,1.1-0.2,2.1v5h-2.7V37.7z"/>
	<path d="M227.3,37.7h2.6v1.5c0.3-0.5,0.8-0.9,1.3-1.3s1.2-0.5,1.9-0.5c1.2,0,2.2,0.5,3.1,1.4s1.3,2.3,1.3,3.9c0,1.7-0.4,3.1-1.3,4
		s-1.9,1.4-3.1,1.4c-0.6,0-1.1-0.1-1.6-0.3s-1-0.6-1.5-1.2V52h-2.7V37.7z M230,42.7c0,1.2,0.2,2,0.7,2.6s1,0.8,1.7,0.8
		c0.6,0,1.2-0.3,1.6-0.8s0.6-1.3,0.6-2.5c0-1.1-0.2-1.9-0.7-2.4s-1-0.8-1.6-0.8c-0.7,0-1.2,0.3-1.7,0.8S230,41.7,230,42.7z"/>
	<path d="M244.3,37.7v2.2h-1.9v4.2c0,0.8,0,1.3,0.1,1.5s0.1,0.3,0.2,0.3s0.3,0.1,0.5,0.1c0.3,0,0.6-0.1,1.1-0.3l0.2,2.1
		c-0.6,0.3-1.4,0.4-2.2,0.4c-0.5,0-0.9-0.1-1.3-0.2s-0.7-0.4-0.9-0.6s-0.3-0.6-0.4-1.1c-0.1-0.3-0.1-1-0.1-1.9v-4.5h-1.3v-2.2h1.3
		v-2.1l2.8-1.6v3.7H244.3z"/>
	<path d="M246.2,36.3v-2.5h2.7v2.5H246.2z M246.2,48.1V37.7h2.7v10.4H246.2z"/>
	<path d="M251.2,42.7c0-0.9,0.2-1.8,0.7-2.6s1.1-1.5,1.9-2s1.7-0.7,2.8-0.7c1.6,0,2.9,0.5,3.9,1.5s1.5,2.3,1.5,3.9
		c0,1.6-0.5,2.9-1.5,3.9s-2.3,1.5-3.8,1.5c-1,0-1.9-0.2-2.7-0.6s-1.5-1.1-2-1.9S251.2,43.9,251.2,42.7z M254,42.9
		c0,1,0.2,1.8,0.7,2.4s1.1,0.8,1.8,0.8s1.3-0.3,1.8-0.8s0.7-1.3,0.7-2.4c0-1-0.2-1.8-0.7-2.3s-1.1-0.8-1.8-0.8s-1.3,0.3-1.8,0.8
		S254,41.9,254,42.9z"/>
	<path d="M273.5,48.1h-2.7v-5.3c0-1.1-0.1-1.8-0.2-2.2s-0.3-0.6-0.6-0.8s-0.6-0.3-1-0.3c-0.5,0-0.9,0.1-1.3,0.4s-0.6,0.6-0.8,1
		s-0.2,1.2-0.2,2.4v4.7H264V37.7h2.5v1.5c0.9-1.2,2-1.8,3.4-1.8c0.6,0,1.2,0.1,1.7,0.3s0.9,0.5,1.1,0.8s0.4,0.7,0.5,1.2
		s0.2,1,0.2,1.8V48.1z"/>
	<path d="M33.5,66.8l2.8,0.9c-0.4,1.6-1.1,2.7-2.1,3.5c-1,0.8-2.3,1.1-3.8,1.1c-1.9,0-3.5-0.6-4.7-1.9s-1.8-3.1-1.8-5.3
		c0-2.4,0.6-4.2,1.8-5.6s2.8-2,4.9-2c1.8,0,3.2,0.5,4.3,1.6c0.7,0.6,1.1,1.5,1.5,2.6l-2.9,0.7c-0.2-0.7-0.5-1.3-1.1-1.8
		s-1.2-0.6-2-0.6c-1.1,0-1.9,0.4-2.6,1.1s-1,2-1,3.7c0,1.8,0.3,3.1,1,3.9c0.7,0.8,1.5,1.2,2.5,1.2c0.8,0,1.4-0.2,2-0.7
		S33.3,67.9,33.5,66.8z"/>
	<path d="M44.8,68.8l2.7,0.5c-0.4,1-0.9,1.8-1.7,2.3c-0.8,0.5-1.7,0.8-2.8,0.8c-1.8,0-3.1-0.6-4-1.8c-0.7-0.9-1-2.1-1-3.6
		c0-1.7,0.4-3.1,1.3-4c0.9-1,2-1.5,3.4-1.5c1.5,0,2.8,0.5,3.7,1.5c0.9,1,1.3,2.6,1.3,4.7h-6.9c0,0.8,0.2,1.4,0.7,1.9
		c0.4,0.5,1,0.7,1.6,0.7c0.4,0,0.8-0.1,1.1-0.4S44.6,69.3,44.8,68.8z M44.9,66c0-0.8-0.2-1.4-0.6-1.8c-0.4-0.4-0.9-0.6-1.4-0.6
		c-0.6,0-1.1,0.2-1.5,0.7c-0.4,0.4-0.6,1-0.6,1.8H44.9z"/>
	<path d="M52.5,72.1h-2.7V61.7h2.5v1.5c0.4-0.7,0.8-1.2,1.2-1.4c0.3-0.2,0.7-0.3,1.2-0.3c0.6,0,1.2,0.2,1.8,0.5l-0.8,2.4
		c-0.5-0.3-0.9-0.4-1.3-0.4c-0.4,0-0.7,0.1-1,0.3c-0.3,0.2-0.5,0.6-0.6,1.1c-0.2,0.6-0.2,1.7-0.2,3.5V72.1z"/>
	<path d="M62.4,61.7v2.2h-1.9v4.2c0,0.8,0,1.3,0.1,1.5c0,0.1,0.1,0.3,0.2,0.3C61,70,61.2,70,61.3,70c0.3,0,0.6-0.1,1.1-0.3l0.2,2.1
		c-0.6,0.3-1.4,0.4-2.2,0.4c-0.5,0-0.9-0.1-1.3-0.2s-0.7-0.4-0.9-0.6s-0.3-0.6-0.4-1.1c-0.1-0.3-0.1-1-0.1-1.9v-4.5h-1.3v-2.2h1.3
		v-2.1l2.8-1.6v3.7H62.4z"/>
	<path d="M64.4,60.3v-2.5h2.7v2.5H64.4z M64.4,72.1V61.7h2.7v10.4H64.4z"/>
	<path d="M68.7,61.7h1.5v-0.8c0-0.9,0.1-1.5,0.3-2s0.5-0.8,1-1c0.5-0.3,1.1-0.4,1.9-0.4c0.8,0,1.5,0.1,2.3,0.4l-0.4,1.9
		c-0.4-0.1-0.9-0.2-1.3-0.2c-0.4,0-0.7,0.1-0.9,0.3S73,60.4,73,61v0.7H75v2.2H73v8.2h-2.7v-8.2h-1.5V61.7z"/>
	<path d="M76.6,60.3v-2.5h2.7v2.5H76.6z M76.6,72.1V61.7h2.7v10.4H76.6z"/>
	<path d="M91.2,64.8l-2.7,0.5c-0.1-0.5-0.3-0.9-0.6-1.2c-0.3-0.3-0.7-0.4-1.3-0.4c-0.7,0-1.2,0.2-1.6,0.7c-0.4,0.5-0.6,1.3-0.6,2.4
		c0,1.2,0.2,2.1,0.6,2.6s1,0.8,1.7,0.8c0.5,0,0.9-0.1,1.3-0.4c0.3-0.3,0.6-0.8,0.7-1.5l2.7,0.5c-0.3,1.2-0.8,2.2-1.6,2.8
		c-0.8,0.6-1.9,0.9-3.2,0.9c-1.5,0-2.7-0.5-3.6-1.4s-1.4-2.3-1.4-4c0-1.7,0.5-3,1.4-4c0.9-1,2.1-1.4,3.7-1.4c1.3,0,2.3,0.3,3,0.8
		C90.3,62.8,90.8,63.7,91.2,64.8z"/>
	<path d="M95.3,64.9l-2.5-0.4c0.3-1,0.8-1.7,1.4-2.2c0.7-0.5,1.7-0.7,3-0.7c1.2,0,2.1,0.1,2.7,0.4c0.6,0.3,1,0.7,1.3,1.1
		c0.2,0.4,0.4,1.3,0.4,2.5l0,3.2c0,0.9,0,1.6,0.1,2c0.1,0.4,0.3,0.9,0.5,1.4h-2.7c-0.1-0.2-0.2-0.5-0.3-0.8c0-0.2-0.1-0.3-0.1-0.3
		c-0.5,0.5-1,0.8-1.5,1c-0.5,0.2-1.1,0.3-1.7,0.3c-1.1,0-1.9-0.3-2.5-0.9c-0.6-0.6-0.9-1.3-0.9-2.2c0-0.6,0.1-1.1,0.4-1.6
		s0.7-0.8,1.2-1.1s1.2-0.5,2.2-0.6c1.3-0.2,2.2-0.5,2.7-0.7V65c0-0.5-0.1-0.9-0.4-1.1c-0.3-0.2-0.8-0.3-1.5-0.3
		c-0.5,0-0.9,0.1-1.1,0.3C95.7,64,95.5,64.4,95.3,64.9z M99,67.1c-0.4,0.1-0.9,0.3-1.7,0.4c-0.8,0.2-1.3,0.3-1.5,0.5
		c-0.4,0.3-0.5,0.6-0.5,1c0,0.4,0.1,0.7,0.4,1c0.3,0.3,0.7,0.4,1.1,0.4c0.5,0,1-0.2,1.4-0.5c0.3-0.2,0.5-0.6,0.7-0.9
		c0.1-0.2,0.1-0.7,0.1-1.3V67.1z"/>
	<path d="M109.1,61.7v2.2h-1.9v4.2c0,0.8,0,1.3,0.1,1.5c0,0.1,0.1,0.3,0.2,0.3c0.1,0.1,0.3,0.1,0.5,0.1c0.3,0,0.6-0.1,1.1-0.3
		l0.2,2.1c-0.6,0.3-1.4,0.4-2.2,0.4c-0.5,0-0.9-0.1-1.3-0.2s-0.7-0.4-0.9-0.6s-0.3-0.6-0.4-1.1c-0.1-0.3-0.1-1-0.1-1.9v-4.5h-1.3
		v-2.2h1.3v-2.1l2.8-1.6v3.7H109.1z"/>
	<path d="M117,68.8l2.7,0.5c-0.4,1-0.9,1.8-1.7,2.3c-0.8,0.5-1.7,0.8-2.8,0.8c-1.8,0-3.1-0.6-4-1.8c-0.7-0.9-1-2.1-1-3.6
		c0-1.7,0.4-3.1,1.3-4c0.9-1,2-1.5,3.4-1.5c1.5,0,2.8,0.5,3.7,1.5c0.9,1,1.3,2.6,1.3,4.7H113c0,0.8,0.2,1.4,0.7,1.9
		c0.4,0.5,1,0.7,1.6,0.7c0.4,0,0.8-0.1,1.1-0.4S116.9,69.3,117,68.8z M117.2,66c0-0.8-0.2-1.4-0.6-1.8c-0.4-0.4-0.9-0.6-1.4-0.6
		c-0.6,0-1.1,0.2-1.5,0.7c-0.4,0.4-0.6,1-0.6,1.8H117.2z"/>
</g>
<g>
	<rect x="321" y="31.1" class="st1" width="68" height="27.5"/>
</g>
<g>
	<path class="st2" d="M327.6,33.8h7.4l4.5,15.3h0.1l3.1-15.3h5.6l-4.7,22.1h-7.4l-4.6-15.3h-0.1l-3.1,15.3h-5.6L327.6,33.8z"/>
</g>
<g>
	<path class="st2" d="M350.5,33.8h5.9l-1.7,8.5h7l1.7-8.5h5.9l-4.6,22.1h-5.9l2-9.5h-7l-2,9.5h-5.9L350.5,33.8z"/>
</g>
<g>
	<path class="st2" d="M384.9,38.8c-1.1-0.5-2.7-1-4.9-1c-2.3,0-4.2,0.3-4.2,2.1c0,3.1,8.6,2,8.6,8.7c0,6.1-5.7,7.7-10.8,7.7
		c-2.3,0-4.9-0.5-6.9-1.1l1.4-4.5c1.2,0.8,3.5,1.3,5.5,1.3c1.8,0,4.7-0.3,4.7-2.6c0-3.6-8.6-2.2-8.6-8.5c0-5.7,5-7.4,9.9-7.4
		c2.7,0,5.3,0.3,6.8,1L384.9,38.8z"/>
</g>
<g>
	<rect x="167.9" y="117.9" class="st3" width="221" height="30"/>
</g>
<g>
	<rect x="83.9" y="162.9" class="st3" width="305" height="30"/>
</g>
<g>
	<rect x="83.9" y="205.9" class="st3" width="88.5" height="30"/>
</g>
<g>
	<rect x="301.6" y="205.9" class="st3" width="88.5" height="30"/>
</g>
<g>
	<path d="M30.9,137.2l2.4,0.8c-0.4,1.3-1,2.3-1.8,3c-0.8,0.6-1.9,1-3.2,1c-1.6,0-2.9-0.6-4-1.7c-1-1.1-1.6-2.6-1.6-4.5
		c0-2,0.5-3.6,1.6-4.7c1-1.1,2.4-1.7,4.1-1.7c1.5,0,2.7,0.4,3.6,1.3c0.6,0.5,1,1.3,1.2,2.2l-2.4,0.6c-0.1-0.6-0.4-1.1-0.9-1.5
		c-0.5-0.4-1-0.5-1.7-0.5c-0.9,0-1.6,0.3-2.2,1c-0.6,0.6-0.8,1.7-0.8,3.1c0,1.5,0.3,2.6,0.8,3.3c0.6,0.7,1.3,1,2.2,1
		c0.7,0,1.2-0.2,1.7-0.6S30.7,138.1,30.9,137.2z"/>
	<path d="M40.5,138.9l2.3,0.4c-0.3,0.9-0.8,1.5-1.4,1.9c-0.6,0.4-1.5,0.7-2.4,0.7c-1.5,0-2.7-0.5-3.4-1.5c-0.6-0.8-0.9-1.8-0.9-3
		c0-1.5,0.4-2.6,1.1-3.4c0.8-0.8,1.7-1.2,2.9-1.2c1.3,0,2.3,0.4,3.1,1.3s1.1,2.2,1.1,4h-5.8c0,0.7,0.2,1.2,0.6,1.6s0.8,0.6,1.3,0.6
		c0.4,0,0.7-0.1,0.9-0.3S40.4,139.3,40.5,138.9z M40.6,136.5c0-0.7-0.2-1.2-0.5-1.5s-0.7-0.5-1.2-0.5c-0.5,0-0.9,0.2-1.3,0.6
		c-0.3,0.4-0.5,0.9-0.5,1.5H40.6z"/>
	<path d="M47.1,141.7h-2.3v-8.8h2.2v1.3c0.4-0.6,0.7-1,1-1.2c0.3-0.2,0.6-0.3,1-0.3c0.5,0,1,0.1,1.5,0.4l-0.7,2
		c-0.4-0.3-0.8-0.4-1.1-0.4c-0.3,0-0.6,0.1-0.8,0.3s-0.4,0.5-0.5,1c-0.1,0.5-0.2,1.5-0.2,3V141.7z"/>
	<path d="M55.5,132.9v1.9h-1.6v3.6c0,0.7,0,1.1,0,1.3c0,0.1,0.1,0.2,0.2,0.3c0.1,0.1,0.2,0.1,0.4,0.1c0.2,0,0.5-0.1,0.9-0.2l0.2,1.8
		c-0.5,0.2-1.2,0.3-1.8,0.3c-0.4,0-0.8-0.1-1.1-0.2c-0.3-0.1-0.6-0.3-0.7-0.5c-0.2-0.2-0.3-0.5-0.3-0.9c0-0.3-0.1-0.8-0.1-1.6v-3.8
		h-1.1v-1.9h1.1v-1.8l2.3-1.4v3.1H55.5z"/>
	<path d="M57.1,131.7v-2.2h2.3v2.2H57.1z M57.1,141.7v-8.8h2.3v8.8H57.1z"/>
	<path d="M60.8,132.9h1.3v-0.7c0-0.7,0.1-1.3,0.2-1.7c0.2-0.4,0.4-0.7,0.9-0.9c0.4-0.2,1-0.3,1.6-0.3c0.7,0,1.3,0.1,2,0.3l-0.3,1.6
		c-0.4-0.1-0.7-0.1-1.1-0.1c-0.3,0-0.6,0.1-0.7,0.2c-0.1,0.2-0.2,0.5-0.2,0.9v0.6h1.7v1.8h-1.7v7h-2.3v-7h-1.3V132.9z"/>
	<path d="M67.5,131.7v-2.2h2.3v2.2H67.5z M67.5,141.7v-8.8h2.3v8.8H67.5z"/>
	<path d="M79.9,135.5l-2.3,0.4c-0.1-0.5-0.3-0.8-0.5-1c-0.3-0.2-0.6-0.3-1.1-0.3c-0.6,0-1,0.2-1.4,0.6c-0.3,0.4-0.5,1.1-0.5,2
		c0,1,0.2,1.8,0.5,2.2c0.4,0.4,0.8,0.6,1.4,0.6c0.4,0,0.8-0.1,1.1-0.4c0.3-0.3,0.5-0.7,0.6-1.3l2.3,0.4c-0.2,1.1-0.7,1.8-1.4,2.4
		c-0.7,0.5-1.6,0.8-2.7,0.8c-1.3,0-2.3-0.4-3.1-1.2c-0.8-0.8-1.2-1.9-1.2-3.4c0-1.5,0.4-2.6,1.2-3.4c0.8-0.8,1.8-1.2,3.1-1.2
		c1.1,0,1.9,0.2,2.6,0.7C79.2,133.8,79.7,134.5,79.9,135.5z"/>
	<path d="M83.4,135.6l-2.1-0.4c0.2-0.9,0.6-1.5,1.2-1.9c0.6-0.4,1.4-0.6,2.6-0.6c1,0,1.8,0.1,2.3,0.4c0.5,0.2,0.9,0.6,1.1,0.9
		c0.2,0.4,0.3,1.1,0.3,2.1l0,2.7c0,0.8,0,1.3,0.1,1.7c0.1,0.4,0.2,0.8,0.4,1.2H87c-0.1-0.2-0.1-0.4-0.2-0.7c0-0.1-0.1-0.2-0.1-0.3
		c-0.4,0.4-0.8,0.7-1.3,0.9c-0.5,0.2-0.9,0.3-1.5,0.3c-0.9,0-1.6-0.2-2.1-0.7c-0.5-0.5-0.8-1.1-0.8-1.9c0-0.5,0.1-0.9,0.4-1.3
		c0.2-0.4,0.6-0.7,1-0.9c0.4-0.2,1-0.4,1.9-0.5c1.1-0.2,1.8-0.4,2.3-0.6v-0.2c0-0.4-0.1-0.8-0.3-1c-0.2-0.2-0.6-0.3-1.3-0.3
		c-0.4,0-0.7,0.1-1,0.2S83.6,135.2,83.4,135.6z M86.6,137.5c-0.3,0.1-0.8,0.2-1.4,0.4c-0.6,0.1-1.1,0.3-1.3,0.4
		c-0.3,0.2-0.5,0.5-0.5,0.8c0,0.3,0.1,0.6,0.4,0.8c0.2,0.2,0.6,0.4,0.9,0.4c0.4,0,0.8-0.1,1.2-0.4c0.3-0.2,0.5-0.5,0.6-0.8
		c0.1-0.2,0.1-0.6,0.1-1.1V137.5z"/>
	<path d="M95.2,132.9v1.9h-1.6v3.6c0,0.7,0,1.1,0,1.3c0,0.1,0.1,0.2,0.2,0.3c0.1,0.1,0.2,0.1,0.4,0.1c0.2,0,0.5-0.1,0.9-0.2l0.2,1.8
		c-0.5,0.2-1.2,0.3-1.8,0.3c-0.4,0-0.8-0.1-1.1-0.2c-0.3-0.1-0.6-0.3-0.7-0.5c-0.2-0.2-0.3-0.5-0.3-0.9c0-0.3-0.1-0.8-0.1-1.6v-3.8
		h-1.1v-1.9h1.1v-1.8l2.3-1.4v3.1H95.2z"/>
	<path d="M101.9,138.9l2.3,0.4c-0.3,0.9-0.8,1.5-1.4,1.9c-0.6,0.4-1.5,0.7-2.4,0.7c-1.5,0-2.7-0.5-3.4-1.5c-0.6-0.8-0.9-1.8-0.9-3
		c0-1.5,0.4-2.6,1.1-3.4c0.8-0.8,1.7-1.2,2.9-1.2c1.3,0,2.3,0.4,3.1,1.3s1.1,2.2,1.1,4h-5.8c0,0.7,0.2,1.2,0.6,1.6
		c0.4,0.4,0.8,0.6,1.3,0.6c0.4,0,0.7-0.1,0.9-0.3S101.8,139.3,101.9,138.9z M102,136.5c0-0.7-0.2-1.2-0.5-1.5s-0.7-0.5-1.2-0.5
		c-0.5,0-0.9,0.2-1.3,0.6c-0.3,0.4-0.5,0.9-0.5,1.5H102z"/>
	<path d="M111,141.7v-12.2h2.4l5,8.1v-8.1h2.3v12.2h-2.5l-4.9-7.9v7.9H111z"/>
	<path d="M122.7,137.2c0-0.8,0.2-1.5,0.6-2.2c0.4-0.7,0.9-1.3,1.6-1.7s1.5-0.6,2.3-0.6c1.3,0,2.4,0.4,3.3,1.3s1.3,2,1.3,3.3
		c0,1.3-0.4,2.4-1.3,3.3c-0.9,0.9-1.9,1.3-3.2,1.3c-0.8,0-1.6-0.2-2.3-0.5s-1.3-0.9-1.7-1.6C122.9,139,122.7,138.2,122.7,137.2z
		 M125.1,137.3c0,0.9,0.2,1.5,0.6,2c0.4,0.5,0.9,0.7,1.5,0.7s1.1-0.2,1.5-0.7s0.6-1.1,0.6-2c0-0.9-0.2-1.5-0.6-2s-0.9-0.7-1.5-0.7
		s-1.1,0.2-1.5,0.7C125.3,135.7,125.1,136.4,125.1,137.3z"/>
	<path d="M134.1,135.2v-2.3h2.3v2.3H134.1z M134.1,141.7v-2.3h2.3v2.3H134.1z"/>
</g>
<g>
	<path d="M23.2,185v-12.2h2.4l5,8.1v-8.1h2.3V185h-2.5l-4.9-7.9v7.9H23.2z"/>
	<path d="M37.1,178.9l-2.1-0.4c0.2-0.9,0.6-1.5,1.2-1.9c0.6-0.4,1.4-0.6,2.6-0.6c1,0,1.8,0.1,2.3,0.4c0.5,0.2,0.9,0.6,1.1,0.9
		c0.2,0.4,0.3,1.1,0.3,2.1l0,2.7c0,0.8,0,1.3,0.1,1.7c0.1,0.4,0.2,0.8,0.4,1.2h-2.3c-0.1-0.2-0.1-0.4-0.2-0.7c0-0.1-0.1-0.2-0.1-0.3
		c-0.4,0.4-0.8,0.7-1.3,0.9c-0.5,0.2-0.9,0.3-1.5,0.3c-0.9,0-1.6-0.2-2.1-0.7c-0.5-0.5-0.8-1.1-0.8-1.9c0-0.5,0.1-0.9,0.4-1.3
		c0.2-0.4,0.6-0.7,1-0.9c0.4-0.2,1-0.4,1.9-0.5c1.1-0.2,1.8-0.4,2.3-0.6V179c0-0.4-0.1-0.8-0.3-1c-0.2-0.2-0.6-0.3-1.3-0.3
		c-0.4,0-0.7,0.1-1,0.2C37.5,178.2,37.3,178.5,37.1,178.9z M40.3,180.8c-0.3,0.1-0.8,0.2-1.4,0.4c-0.6,0.1-1.1,0.3-1.3,0.4
		c-0.3,0.2-0.5,0.5-0.5,0.8c0,0.3,0.1,0.6,0.4,0.8c0.2,0.2,0.6,0.4,0.9,0.4c0.4,0,0.8-0.1,1.2-0.4c0.3-0.2,0.5-0.5,0.6-0.8
		c0.1-0.2,0.1-0.6,0.1-1.1V180.8z"/>
	<path d="M44.7,176.2h2.1v1.2c0.8-0.9,1.7-1.4,2.7-1.4c0.6,0,1.1,0.1,1.5,0.3s0.8,0.6,1,1.1c0.4-0.5,0.8-0.8,1.3-1.1
		s0.9-0.3,1.4-0.3c0.6,0,1.2,0.1,1.6,0.4s0.8,0.6,1,1.2c0.2,0.4,0.2,1,0.2,1.8v5.6h-2.3v-5c0-0.9-0.1-1.4-0.2-1.7
		c-0.2-0.3-0.5-0.5-1-0.5c-0.3,0-0.6,0.1-0.9,0.3s-0.5,0.5-0.6,0.9c-0.1,0.4-0.2,1-0.2,1.8v4.2H50v-4.8c0-0.9,0-1.4-0.1-1.7
		s-0.2-0.4-0.4-0.6c-0.2-0.1-0.4-0.2-0.7-0.2c-0.4,0-0.7,0.1-1,0.3c-0.3,0.2-0.5,0.5-0.6,0.8c-0.1,0.4-0.2,1-0.2,1.8v4.3h-2.3V176.2
		z"/>
	<path d="M65.1,182.2l2.3,0.4c-0.3,0.9-0.8,1.5-1.4,1.9c-0.6,0.4-1.5,0.7-2.4,0.7c-1.5,0-2.7-0.5-3.4-1.5c-0.6-0.8-0.9-1.8-0.9-3
		c0-1.5,0.4-2.6,1.1-3.4s1.7-1.2,2.9-1.2c1.3,0,2.3,0.4,3.1,1.3c0.8,0.9,1.1,2.2,1.1,4h-5.8c0,0.7,0.2,1.2,0.6,1.6
		c0.4,0.4,0.8,0.6,1.3,0.6c0.4,0,0.7-0.1,0.9-0.3S65,182.6,65.1,182.2z M65.2,179.8c0-0.7-0.2-1.2-0.5-1.5c-0.3-0.4-0.7-0.5-1.2-0.5
		c-0.5,0-0.9,0.2-1.3,0.6c-0.3,0.4-0.5,0.9-0.5,1.5H65.2z"/>
	<path d="M69.9,178.5v-2.3h2.3v2.3H69.9z M69.9,185v-2.3h2.3v2.3H69.9z"/>
</g>
<g>
	<path d="M26.2,218.1l-4.3-12.2h2.7l3.1,9l3-9h2.6l-4.4,12.2H26.2z"/>
	<path d="M35.3,212l-2.1-0.4c0.2-0.9,0.6-1.5,1.2-1.9c0.6-0.4,1.4-0.6,2.6-0.6c1,0,1.8,0.1,2.3,0.4s0.9,0.6,1.1,0.9
		c0.2,0.4,0.3,1.1,0.3,2.1l0,2.7c0,0.8,0,1.3,0.1,1.7c0.1,0.4,0.2,0.8,0.4,1.2h-2.3c-0.1-0.2-0.1-0.4-0.2-0.7c0-0.1-0.1-0.2-0.1-0.3
		c-0.4,0.4-0.8,0.7-1.3,0.9c-0.5,0.2-0.9,0.3-1.5,0.3c-0.9,0-1.6-0.2-2.1-0.7c-0.5-0.5-0.8-1.1-0.8-1.9c0-0.5,0.1-0.9,0.4-1.3
		c0.2-0.4,0.6-0.7,1-0.9c0.4-0.2,1-0.4,1.9-0.5c1.1-0.2,1.8-0.4,2.3-0.6v-0.2c0-0.4-0.1-0.8-0.3-1c-0.2-0.2-0.6-0.3-1.3-0.3
		c-0.4,0-0.7,0.1-1,0.2S35.4,211.5,35.3,212z M38.4,213.8c-0.3,0.1-0.8,0.2-1.4,0.4c-0.6,0.1-1.1,0.3-1.3,0.4
		c-0.3,0.2-0.5,0.5-0.5,0.8c0,0.3,0.1,0.6,0.4,0.8c0.2,0.2,0.6,0.4,0.9,0.4c0.4,0,0.8-0.1,1.2-0.4c0.3-0.2,0.5-0.5,0.6-0.8
		c0.1-0.2,0.1-0.6,0.1-1.1V213.8z"/>
	<path d="M43,218.1v-12.2h2.3v12.2H43z"/>
	<path d="M47.7,208.1v-2.2H50v2.2H47.7z M47.7,218.1v-8.8H50v8.8H47.7z"/>
	<path d="M60.5,218.1h-2.2v-1.3c-0.4,0.5-0.8,0.9-1.3,1.1c-0.5,0.2-1,0.4-1.5,0.4c-1,0-1.9-0.4-2.6-1.2c-0.7-0.8-1.1-2-1.1-3.4
		c0-1.5,0.4-2.6,1.1-3.4s1.6-1.2,2.7-1.2c1,0,1.8,0.4,2.6,1.2v-4.4h2.3V218.1z M54.3,213.5c0,0.9,0.1,1.6,0.4,2
		c0.4,0.6,0.9,0.9,1.6,0.9c0.5,0,1-0.2,1.4-0.7c0.4-0.5,0.6-1.1,0.6-2c0-1-0.2-1.7-0.5-2.2c-0.4-0.4-0.8-0.7-1.4-0.7
		c-0.6,0-1,0.2-1.4,0.7C54.5,211.9,54.3,212.6,54.3,213.5z"/>
	<path d="M22.1,229.7h1.3V229c0-0.7,0.1-1.3,0.2-1.7c0.2-0.4,0.4-0.7,0.9-0.9c0.4-0.2,1-0.3,1.6-0.3c0.7,0,1.3,0.1,2,0.3l-0.3,1.6
		c-0.4-0.1-0.7-0.1-1.1-0.1c-0.3,0-0.6,0.1-0.7,0.2c-0.1,0.2-0.2,0.5-0.2,0.9v0.6h1.7v1.8h-1.7v7h-2.3v-7h-1.3V229.7z"/>
	<path d="M31,238.5h-2.3v-8.8h2.2v1.3c0.4-0.6,0.7-1,1-1.2c0.3-0.2,0.6-0.3,1-0.3c0.5,0,1,0.1,1.5,0.4l-0.7,2
		c-0.4-0.3-0.8-0.4-1.1-0.4c-0.3,0-0.6,0.1-0.8,0.3c-0.2,0.2-0.4,0.5-0.5,1c-0.1,0.5-0.2,1.5-0.2,3V238.5z"/>
	<path d="M34.9,233.9c0-0.8,0.2-1.5,0.6-2.2c0.4-0.7,0.9-1.3,1.6-1.7c0.7-0.4,1.5-0.6,2.3-0.6c1.3,0,2.4,0.4,3.3,1.3
		c0.9,0.9,1.3,2,1.3,3.3c0,1.3-0.4,2.4-1.3,3.3c-0.9,0.9-1.9,1.3-3.2,1.3c-0.8,0-1.6-0.2-2.3-0.5c-0.7-0.4-1.3-0.9-1.7-1.6
		C35.1,235.8,34.9,235,34.9,233.9z M37.3,234.1c0,0.9,0.2,1.5,0.6,2s0.9,0.7,1.5,0.7s1.1-0.2,1.5-0.7c0.4-0.5,0.6-1.1,0.6-2
		c0-0.9-0.2-1.5-0.6-2c-0.4-0.5-0.9-0.7-1.5-0.7s-1.1,0.2-1.5,0.7S37.3,233.2,37.3,234.1z"/>
	<path d="M45.6,229.7h2.1v1.2c0.8-0.9,1.7-1.4,2.7-1.4c0.6,0,1.1,0.1,1.5,0.3s0.8,0.6,1,1.1c0.4-0.5,0.8-0.8,1.3-1.1
		s0.9-0.3,1.4-0.3c0.6,0,1.2,0.1,1.6,0.4s0.8,0.6,1,1.2c0.2,0.4,0.2,1,0.2,1.8v5.6h-2.3v-5c0-0.9-0.1-1.4-0.2-1.7
		c-0.2-0.3-0.5-0.5-1-0.5c-0.3,0-0.6,0.1-0.9,0.3s-0.5,0.5-0.6,0.9c-0.1,0.4-0.2,1-0.2,1.8v4.2h-2.3v-4.8c0-0.9,0-1.4-0.1-1.7
		s-0.2-0.4-0.4-0.6c-0.2-0.1-0.4-0.2-0.7-0.2c-0.4,0-0.7,0.1-1,0.3c-0.3,0.2-0.5,0.5-0.6,0.8c-0.1,0.4-0.2,1-0.2,1.8v4.3h-2.3V229.7
		z"/>
	<path d="M61.4,232v-2.3h2.3v2.3H61.4z M61.4,238.5v-2.3h2.3v2.3H61.4z"/>
</g>
<g>
	<path d="M211.1,218.1v-12.2h9v2.1h-6.6v2.7h6.1v2h-6.1v3.3h6.8v2.1H211.1z"/>
	<path d="M221.3,218.1l3.2-4.5l-3-4.3h2.8l1.6,2.4l1.6-2.4h2.7l-3,4.2l3.3,4.6h-2.9l-1.8-2.7l-1.8,2.7H221.3z"/>
	<path d="M231.8,209.3h2.2v1.3c0.3-0.4,0.7-0.8,1.1-1.1s1-0.4,1.6-0.4c1,0,1.9,0.4,2.6,1.2c0.7,0.8,1.1,1.9,1.1,3.4
		c0,1.5-0.4,2.6-1.1,3.4c-0.7,0.8-1.6,1.2-2.6,1.2c-0.5,0-0.9-0.1-1.3-0.3c-0.4-0.2-0.8-0.5-1.2-1v4.4h-2.3V209.3z M234.1,213.5
		c0,1,0.2,1.7,0.6,2.2c0.4,0.5,0.9,0.7,1.4,0.7c0.5,0,1-0.2,1.4-0.7c0.4-0.4,0.5-1.1,0.5-2.1c0-0.9-0.2-1.6-0.6-2.1
		c-0.4-0.4-0.8-0.7-1.4-0.7c-0.6,0-1,0.2-1.4,0.7C234.3,212,234.1,212.7,234.1,213.5z"/>
	<path d="M242.2,208.1v-2.2h2.3v2.2H242.2z M242.2,218.1v-8.8h2.3v8.8H242.2z"/>
	<path d="M249.2,218.1h-2.3v-8.8h2.2v1.3c0.4-0.6,0.7-1,1-1.2s0.6-0.3,1-0.3c0.5,0,1,0.1,1.5,0.4l-0.7,2c-0.4-0.3-0.8-0.4-1.1-0.4
		c-0.3,0-0.6,0.1-0.8,0.3c-0.2,0.2-0.4,0.5-0.5,1c-0.1,0.5-0.2,1.5-0.2,3V218.1z"/>
	<path d="M258.7,215.3l2.3,0.4c-0.3,0.9-0.8,1.5-1.4,1.9s-1.5,0.7-2.4,0.7c-1.5,0-2.7-0.5-3.4-1.5c-0.6-0.8-0.9-1.8-0.9-3
		c0-1.5,0.4-2.6,1.1-3.4c0.8-0.8,1.7-1.2,2.9-1.2c1.3,0,2.3,0.4,3.1,1.3c0.8,0.9,1.1,2.2,1.1,4h-5.8c0,0.7,0.2,1.2,0.6,1.6
		c0.4,0.4,0.8,0.6,1.3,0.6c0.4,0,0.7-0.1,0.9-0.3S258.5,215.7,258.7,215.3z M258.8,212.9c0-0.7-0.2-1.2-0.5-1.5s-0.7-0.5-1.2-0.5
		c-0.5,0-0.9,0.2-1.3,0.6s-0.5,0.9-0.5,1.5H258.8z"/>
	<path d="M262.2,215.6l2.3-0.4c0.1,0.5,0.3,0.8,0.6,1c0.3,0.2,0.7,0.4,1.3,0.4c0.6,0,1.1-0.1,1.4-0.3c0.2-0.2,0.3-0.4,0.3-0.6
		c0-0.2-0.1-0.3-0.2-0.4c-0.1-0.1-0.4-0.2-0.8-0.3c-1.9-0.4-3.1-0.8-3.6-1.1c-0.7-0.5-1-1.1-1-2c0-0.8,0.3-1.4,0.9-1.9
		c0.6-0.5,1.5-0.8,2.8-0.8c1.2,0,2.1,0.2,2.7,0.6c0.6,0.4,1,1,1.2,1.7l-2.2,0.4c-0.1-0.3-0.3-0.6-0.5-0.8c-0.3-0.2-0.6-0.3-1.1-0.3
		c-0.6,0-1.1,0.1-1.3,0.3c-0.2,0.1-0.3,0.3-0.3,0.5c0,0.2,0.1,0.3,0.2,0.4c0.2,0.2,0.9,0.4,2.2,0.7s2.1,0.6,2.6,1
		c0.5,0.4,0.7,1,0.7,1.7c0,0.8-0.3,1.5-1,2.1c-0.7,0.6-1.7,0.9-3,0.9c-1.2,0-2.2-0.2-2.9-0.7C262.9,217.1,262.4,216.4,262.2,215.6z"
		/>
	<path d="M216.2,235.7l2.3,0.4c-0.3,0.9-0.8,1.5-1.4,1.9c-0.6,0.4-1.5,0.7-2.4,0.7c-1.5,0-2.7-0.5-3.4-1.5c-0.6-0.8-0.9-1.8-0.9-3
		c0-1.5,0.4-2.6,1.1-3.4c0.8-0.8,1.7-1.2,2.9-1.2c1.3,0,2.3,0.4,3.1,1.3c0.8,0.9,1.1,2.2,1.1,4h-5.8c0,0.7,0.2,1.2,0.6,1.6
		c0.4,0.4,0.8,0.6,1.3,0.6c0.4,0,0.7-0.1,0.9-0.3S216,236.1,216.2,235.7z M216.3,233.3c0-0.7-0.2-1.2-0.5-1.5s-0.7-0.5-1.2-0.5
		c-0.5,0-0.9,0.2-1.3,0.6c-0.3,0.4-0.5,0.9-0.5,1.5H216.3z"/>
	<path d="M228.5,238.5h-2.3V234c0-1,0-1.6-0.1-1.8c-0.1-0.3-0.3-0.5-0.5-0.7c-0.2-0.2-0.5-0.2-0.8-0.2c-0.4,0-0.8,0.1-1.1,0.3
		c-0.3,0.2-0.5,0.5-0.7,0.9c-0.1,0.4-0.2,1-0.2,2v4h-2.3v-8.8h2.2v1.3c0.8-1,1.7-1.5,2.9-1.5c0.5,0,1,0.1,1.4,0.3
		c0.4,0.2,0.7,0.4,1,0.7s0.4,0.6,0.5,1c0.1,0.4,0.1,0.9,0.1,1.6V238.5z"/>
	<path d="M239,238.5h-2.2v-1.3c-0.4,0.5-0.8,0.9-1.3,1.1c-0.5,0.2-1,0.4-1.5,0.4c-1,0-1.9-0.4-2.6-1.2c-0.7-0.8-1.1-2-1.1-3.4
		c0-1.5,0.4-2.6,1.1-3.4c0.7-0.8,1.6-1.2,2.7-1.2c1,0,1.8,0.4,2.6,1.2v-4.4h2.3V238.5z M232.7,233.9c0,0.9,0.1,1.6,0.4,2
		c0.4,0.6,0.9,0.9,1.6,0.9c0.5,0,1-0.2,1.4-0.7c0.4-0.5,0.6-1.1,0.6-2c0-1-0.2-1.7-0.5-2.2s-0.8-0.7-1.4-0.7c-0.6,0-1,0.2-1.4,0.7
		C232.9,232.3,232.7,233,232.7,233.9z"/>
	<path d="M241.7,232v-2.3h2.3v2.3H241.7z M241.7,238.5v-2.3h2.3v2.3H241.7z"/>
</g>
</svg>
